<?xml version="1.0" encoding="UTF-8"?>
<svg width="104px" height="19px" viewBox="0 0 104 19" version="1.1" xmlns="http://www.w3.org/2000/svg" xmlns:xlink="http://www.w3.org/1999/xlink">
    <!-- Generator: Sketch 52.6 (67491) - http://www.bohemiancoding.com/sketch -->
    <title>Group 24</title>
    <desc>Created with Sketch.</desc>
    <defs>
        <polygon id="path-1" points="0.9141 0.6322 16.488 0.6322 16.488 17.8362 0.9141 17.8362"></polygon>
        <polygon id="path-3" points="0.8712 0.2162 9.1522 0.2162 9.1522 11 0.8712 11"></polygon>
        <polygon id="path-5" points="0 19.0672 103.488 19.0672 103.488 0.0002 0 0.0002"></polygon>
    </defs>
    <g id="Page-1" stroke="none" stroke-width="1" fill="none" fill-rule="evenodd">
        <g id="Group-24">
            <path d="M68.2923,2.5837 L66.7243,2.4917 C65.3963,2.4917 64.3083,2.8157 63.4563,3.4647 C62.6043,4.1137 61.9963,5.0047 61.6323,6.1377 L61.6323,17.5817 L59.5183,17.5817 L59.5183,1.0057 L61.3683,1.0057 L61.6323,3.7637 L61.6323,3.9477 C62.1853,2.9267 62.9253,2.1297 63.8533,1.5577 C64.7803,0.9857 65.8843,0.6997 67.1653,0.6997 C67.4353,0.6997 67.6963,0.7177 67.9483,0.7537 C68.2013,0.7897 68.4093,0.8277 68.5743,0.8687 L68.2923,2.5837 Z" id="Fill-1" fill="#FEFEFE"></path>
            <path d="M82.7015,13.3611 C82.7015,12.5871 82.3345,11.9091 81.6005,11.3281 C80.8675,10.7471 79.5415,10.2741 77.6275,9.9071 C75.3495,9.4781 73.6665,8.9111 72.5805,8.2061 C71.4945,7.5021 70.9505,6.5061 70.9505,5.2191 C70.9505,3.9531 71.5645,2.8821 72.7925,2.0101 C74.0185,1.1361 75.6425,0.6991 77.6635,0.6991 C79.8125,0.6991 81.5145,1.1621 82.7725,2.0861 C84.0285,3.0101 84.6285,4.1671 84.5695,5.5561 L84.5335,5.6481 L82.5785,5.6481 C82.5785,4.7391 82.1355,3.9471 81.2485,3.2731 C80.3615,2.5991 79.1665,2.2621 77.6635,2.2621 C76.1245,2.2621 74.9705,2.5491 74.2015,3.1231 C73.4315,3.6981 73.0475,4.3711 73.0475,5.1431 C73.0475,5.9051 73.3795,6.5351 74.0425,7.0331 C74.7055,7.5311 76.0305,7.9681 78.0155,8.3441 C80.2825,8.7851 81.9795,9.3871 83.1075,10.1501 C84.2345,10.9141 84.7985,11.9511 84.7985,13.2621 C84.7985,14.6451 84.1555,15.7651 82.8695,16.6201 C81.5835,17.4761 79.8825,17.9031 77.7685,17.9031 C75.4545,17.9031 73.6385,17.4241 72.3155,16.4641 C70.9945,15.5041 70.3695,14.3601 70.4395,13.0321 L70.4755,12.9401 L72.4125,12.9401 C72.4945,14.1301 73.0565,14.9941 74.0955,15.5331 C75.1345,16.0721 76.3595,16.3411 77.7685,16.3411 C79.2955,16.3411 80.4995,16.0501 81.3805,15.4701 C82.2615,14.8891 82.7015,14.1861 82.7015,13.3611" id="Fill-3" fill="#FEFEFE"></path>
            <g id="Group-7" transform="translate(87.000000, 0.067200)">
                <mask id="mask-2" fill="white">
                    <use xlink:href="#path-1"></use>
                </mask>
                <g id="Clip-6"></g>
                <path d="M8.9651,2.1952 C7.4031,2.1952 6.0931,2.7122 5.0361,3.7452 C3.9801,4.7792 3.3621,6.0752 3.1871,7.6332 L3.2211,7.7102 L14.3911,7.7102 L14.3911,7.2522 C14.3911,5.8162 13.9031,4.6132 12.9291,3.6462 C11.9541,2.6782 10.6321,2.1952 8.9651,2.1952 M9.2291,17.8362 C6.8451,17.8362 4.8621,17.0702 3.2831,15.5382 C1.7041,14.0072 0.9141,12.0662 0.9141,9.7172 L0.9141,8.8742 C0.9141,6.5052 1.6971,4.5392 3.2661,2.9762 C4.8341,1.4142 6.7341,0.6322 8.9651,0.6322 C11.3021,0.6322 13.1411,1.2762 14.4791,2.5632 C15.8191,3.8492 16.4881,5.5652 16.4881,7.7102 L16.4881,9.2732 L3.0281,9.2732 L3.0281,9.7162 C3.0281,11.5812 3.5971,13.1402 4.7371,14.3942 C5.8761,15.6472 7.3731,16.2742 9.2291,16.2742 C10.5441,16.2742 11.6661,16.1152 12.5941,15.7992 C13.5221,15.4832 14.3151,15.0282 14.9731,14.4352 L15.8711,15.6922 C15.1541,16.3482 14.2471,16.8692 13.1491,17.2562 C12.0501,17.6432 10.7451,17.8362 9.2291,17.8362" id="Fill-5" fill="#FEFEFE" mask="url(#mask-2)"></path>
            </g>
            <polygon id="Fill-8" fill="#8F8F8F" points="25.7903 19.0671 17.5113 10.9761 17.5093 8.2041 25.7903 16.2971"></polygon>
            <polygon id="Fill-10" fill-opacity="0.8" fill="#8F8F8F" points="17.5091 10.7834 25.7881 2.6924 25.7901 0.0004 17.5091 8.0934"></polygon>
            <polygon id="Fill-12" fill="#8F8F8F" points="27.8709 0.0002 36.1499 8.0912 36.1519 10.8632 27.8709 2.7702"></polygon>
            <g id="Group-16" transform="translate(27.000000, 8.067200)">
                <mask id="mask-4" fill="white">
                    <use xlink:href="#path-3"></use>
                </mask>
                <g id="Clip-15"></g>
                <polygon id="Fill-14" fill="#8C8C8C" mask="url(#mask-4)" points="9.1522 0.2162 0.8732 8.3082 0.8712 11.0002 9.1522 2.9062"></polygon>
            </g>
            <path d="M49.9564,15.4924 C49.0234,16.0524 47.8114,16.3414 46.2994,16.3414 C44.8434,16.3414 43.7184,15.9014 42.9254,15.0214 C42.1324,14.1414 41.7374,12.6874 41.7374,10.6614 L41.7374,1.0064 L39.6234,1.0064 L39.6234,10.6114 C39.6234,13.1034 40.1924,14.9424 41.3314,16.1264 C42.4704,17.3114 44.0444,17.9034 46.0534,17.9034 C47.4624,17.9034 48.6834,17.6404 49.7174,17.1154 C49.8014,17.0724 49.8754,17.0184 49.9564,16.9734 L49.9564,15.4924 Z" id="Fill-17" fill="#FEFEFE"></path>
            <path d="M12.9495,2.3469 C11.8685,1.2489 10.2945,0.6999 8.2275,0.6999 C6.8065,0.6999 5.5765,0.9779 4.5365,1.5349 C4.4615,1.5749 4.3945,1.6259 4.3205,1.6689 L4.3205,3.1709 C5.2275,2.5729 6.3655,2.2629 7.7515,2.2629 C9.2555,2.2629 10.4145,2.6569 11.2315,3.4439 C12.0485,4.2319 12.4565,5.5779 12.4565,7.4809 L12.4565,17.5819 L14.5705,17.5819 L14.5705,7.4859 C14.5705,5.1579 14.0295,3.4439 12.9495,2.3469" id="Fill-19" fill="#FEFEFE"></path>
            <mask id="mask-6" fill="white">
                <use xlink:href="#path-5"></use>
            </mask>
            <g id="Clip-22"></g>
            <polygon id="Fill-21" fill="#FEFEFE" mask="url(#mask-6)" points="0 17.5822 2.24 17.5822 2.24 1.0062 0 1.0062"></polygon>
            <polygon id="Fill-23" fill="#FEFEFE" mask="url(#mask-6)" points="51.956 17.5822 54.196 17.5822 54.196 1.0062 51.956 1.0062"></polygon>
        </g>
    </g>
</svg>